<?xml version="1.0" standalone="no"?>
<!DOCTYPE svg PUBLIC "-//W3C//DTD SVG 20010904//EN"
 "http://www.w3.org/TR/2001/REC-SVG-20010904/DTD/svg10.dtd">
<svg version="1.0" xmlns="http://www.w3.org/2000/svg"
 width="728.000000pt" height="455.000000pt" viewBox="0 0 728.000000 455.000000"
 preserveAspectRatio="xMidYMid meet">

<g transform="translate(0.000000,455.000000) scale(0.100000,-0.100000)"
fill="#000000" stroke="none">
<path d="M0 2275 l0 -2275 3640 0 3640 0 0 1514 0 1514 -22 6 c-13 3 -42 6
-65 6 -37 0 -44 -4 -58 -30 -8 -16 -15 -39 -15 -50 0 -26 -83 -115 -165 -177
-33 -25 -115 -72 -182 -104 -114 -56 -173 -100 -173 -133 0 -15 -31 -40 -55
-44 -11 -2 -35 -6 -54 -9 -22 -4 -29 -8 -20 -14 7 -4 -4 -6 -27 -4 -21 3 -84
6 -140 9 -56 3 -121 9 -145 15 -24 5 -78 15 -119 21 -96 16 -121 29 -196 104
-33 34 -83 72 -110 86 -159 80 -314 232 -389 380 -18 36 -35 53 -68 69 -85 41
-96 77 -70 219 11 56 10 67 -8 110 -11 26 -26 54 -34 62 -26 29 -34 85 -21
147 14 67 29 97 63 134 13 15 26 35 28 45 2 11 4 20 4 22 1 2 22 -13 47 -33
26 -19 57 -35 69 -35 12 0 41 -7 65 -15 23 -8 91 -18 152 -21 l109 -7 29 31
c20 22 38 32 59 32 94 0 3 55 -166 100 -74 20 -83 25 -92 53 -19 54 -15 63 38
97 12 7 12 12 -2 34 -27 40 -31 105 -10 146 19 37 22 38 156 25 25 -2 46 -35
47 -75 1 -31 2 -33 12 -15 17 29 38 42 85 54 69 18 103 87 103 214 l0 67 -239
0 c-230 0 -239 -1 -244 -20 -3 -11 -10 -20 -16 -20 -6 0 -11 9 -11 20 0 20 -7
20 -1030 20 l-1030 0 0 -25 c0 -18 5 -25 20 -25 20 0 44 -32 33 -44 -3 -3 -18
-6 -32 -6 -22 0 -26 -5 -29 -33 -3 -42 6 -79 18 -72 5 3 7 12 3 20 -10 27 6
65 27 65 24 0 40 -35 40 -88 0 -20 5 -44 10 -52 7 -11 10 -11 10 -2 0 9 5 10
18 3 13 -7 27 -6 46 5 16 8 34 14 41 14 7 0 11 11 9 27 -1 15 0 31 3 36 7 12
33 -13 33 -33 0 -10 9 -40 21 -67 26 -59 29 -150 7 -213 -9 -25 -19 -62 -22
-82 -5 -28 -14 -40 -36 -50 -30 -13 -30 -14 -31 -93 0 -44 -2 -91 -4 -105 -1
-14 0 -29 4 -35 3 -5 9 10 12 35 4 29 7 3 7 -72 2 -111 3 -118 22 -118 26 0
26 -20 0 -27 -18 -5 -20 -14 -20 -81 0 -111 -17 -84 -19 31 -1 53 -18 64 -24
15 l-4 -33 -1 33 c-1 21 -7 32 -17 32 -13 0 -15 -25 -15 -165 l0 -165 48 -1
c96 -3 110 -17 17 -17 -49 0 -99 3 -110 8 -19 8 -19 9 2 9 22 1 22 4 25 172 2
94 1 172 -1 175 -2 2 -3 78 -2 170 l2 167 -31 -24 c-17 -13 -43 -34 -57 -47
-38 -35 -66 -42 -156 -41 -96 1 -101 2 -158 51 -24 20 -61 50 -81 66 -41 32
-150 160 -185 216 l-22 36 24 47 c13 26 21 51 18 56 -3 5 3 6 14 3 11 -3 37 3
59 14 21 10 33 19 27 20 -9 0 -13 20 -13 64 0 70 17 91 50 61 16 -14 18 -14
23 0 11 28 28 16 25 -17 -2 -27 1 -34 18 -36 17 -2 25 6 39 45 18 50 35 153
28 166 -2 4 -438 7 -969 7 l-964 0 -1 -52 c-3 -80 2 -132 12 -144 5 -7 8 -18
7 -25 -2 -9 8 -15 25 -17 26 -3 27 -6 21 -38 -7 -41 16 -84 46 -84 11 0 19 3
19 8 -1 4 -1 13 0 20 1 11 3 11 14 0 8 -7 16 -20 20 -28 3 -9 6 -3 6 13 1 16
5 26 10 23 5 -4 11 -1 13 4 2 6 17 12 33 14 l30 4 -3 105 -4 106 43 20 c52 26
55 26 106 1 40 -19 41 -20 48 -86 12 -115 27 -133 140 -171 17 -6 38 -14 48
-18 14 -6 17 -2 17 19 0 16 6 26 15 26 17 0 20 -41 5 -70 -7 -13 -7 -21 0 -25
16 -10 11 -45 -7 -51 -10 -3 -31 -12 -48 -19 -16 -8 -33 -11 -37 -9 -11 7 -10
34 2 34 6 0 10 4 10 9 0 5 -9 7 -20 4 -13 -4 -20 -14 -20 -29 0 -16 -8 -28
-22 -34 -16 -6 -18 -9 -7 -9 19 -1 31 -57 22 -103 -5 -26 -3 -29 13 -26 11 2
20 13 22 26 2 13 11 26 20 29 9 4 22 14 29 22 17 22 16 10 -2 -25 -15 -30 -78
-99 -131 -144 -24 -21 -42 -25 -109 -28 -80 -4 -81 -4 -143 37 -56 37 -83 69
-49 55 23 -9 37 57 20 97 -13 32 -13 34 12 52 27 20 34 57 11 57 -7 0 -19 -7
-26 -15 -8 -9 -20 -13 -29 -10 -29 12 -71 14 -71 5 0 -6 -7 -10 -15 -10 -8 0
-15 5 -15 10 0 6 -4 10 -9 10 -5 0 -7 -8 -4 -18 3 -11 -7 -26 -29 -42 -28 -21
-44 -24 -105 -24 -65 0 -74 2 -97 27 -14 15 -30 27 -35 27 -12 0 -81 62 -81
72 0 5 -9 17 -20 28 -11 11 -20 25 -20 30 0 16 19 11 41 -11 12 -12 24 -17 28
-12 3 5 14 12 23 16 22 8 23 27 2 27 -9 0 -14 6 -11 13 2 6 10 11 17 9 8 -2
11 4 7 18 -3 11 -2 18 2 16 4 -3 13 -1 21 5 10 6 0 9 -32 9 -27 0 -48 -4 -48
-10 0 -5 5 -10 10 -10 6 0 10 -5 10 -11 0 -5 -4 -8 -9 -5 -5 4 -11 2 -13 -3
-1 -5 -16 -11 -32 -13 -25 -3 -31 1 -38 27 -4 17 -5 44 -2 62 5 29 9 31 37 28
17 -2 35 -11 39 -20 13 -21 90 -20 118 3 18 15 20 21 11 45 -6 16 -11 62 -11
103 l0 74 -510 0 -510 0 0 -2275z m5505 2245 c19 -8 19 -9 1 -9 -22 -1 -56
-37 -57 -60 0 -12 -3 -11 -9 4 -13 30 -12 33 10 40 11 3 20 13 20 21 0 16 6
16 35 4z m-2525 -49 c0 -20 -25 -35 -41 -25 -13 8 9 44 26 44 8 0 15 -9 15
-19z m2527 3 c-3 -3 -12 -4 -19 -1 -8 3 -5 6 6 6 11 1 17 -2 13 -5z m-4617
-74 c0 -16 -4 -30 -10 -30 -11 0 -14 43 -3 53 11 12 13 8 13 -23z m387 -117
c-3 -10 -5 -2 -5 17 0 19 2 27 5 18 2 -10 2 -26 0 -35z m33 -5 c0 -16 -3 -19
-11 -11 -6 6 -8 16 -5 22 11 17 16 13 16 -11z m55 -8 c3 -5 -1 -10 -9 -10 -9
0 -16 5 -16 10 0 6 4 10 9 10 6 0 13 -4 16 -10z m3185 -293 c0 -192 3 -298 10
-302 7 -4 10 91 10 294 l0 301 28 0 27 0 2 -93 c2 -50 0 -135 -4 -187 -7 -88
-8 -91 -14 -45 l-6 50 -2 -55 c0 -30 -4 -73 -7 -95 -4 -30 -3 -36 5 -25 9 12
11 10 11 -12 0 -14 -4 -28 -8 -30 -4 -1 -6 -28 -3 -58 3 -44 6 -50 12 -30 7
25 7 25 8 2 1 -19 5 -22 21 -17 12 4 20 2 20 -5 0 -7 -8 -14 -19 -17 -15 -4
-19 -17 -24 -71 -3 -37 -3 -106 0 -154 l6 -88 41 -1 41 -2 -52 -10 c-30 -5
-72 -6 -100 -1 -26 4 -39 9 -28 11 20 4 20 11 17 475 -1 260 0 469 3 466 4 -3
6 -139 5 -301z m-3190 63 c0 -5 -2 -10 -4 -10 -3 0 -8 5 -11 10 -3 6 -1 10 4
10 6 0 11 -4 11 -10z m923 -10 c-3 -11 -9 -17 -14 -14 -14 8 -10 34 5 34 9 0
12 -7 9 -20z m24 -267 c-1 -54 -3 -10 -3 97 0 107 2 151 3 98 2 -54 2 -142 0
-195z m94 193 c1 -50 1 -207 1 -348 1 -268 3 -277 43 -262 8 4 15 2 15 -3 0
-17 -24 -33 -51 -33 -26 0 -27 -2 -31 -60 -2 -35 1 -60 7 -61 6 0 4 -3 -3 -6
-6 -2 -9 -9 -6 -15 4 -6 0 -14 -7 -19 -10 -6 -8 -9 9 -9 22 0 23 3 21 60 -1
33 1 63 5 67 4 4 6 -45 5 -110 l-2 -117 -26 -1 c-25 -1 -25 -2 4 -9 l30 -8
-27 -1 c-39 -1 -35 -19 5 -24 22 -3 16 -4 -18 -5 -27 0 -44 2 -37 5 9 3 12 45
12 159 0 129 -2 154 -15 154 -12 0 -15 -25 -18 -142 l-3 -143 -2 147 c-1 98
-6 149 -14 154 -8 5 -9 -9 -5 -56 4 -35 7 -121 7 -191 l0 -129 83 0 c65 -1 78
-3 63 -12 -12 -7 -49 -8 -104 -4 l-85 6 7 -135 c5 -94 4 -135 -3 -135 -8 0
-11 58 -9 183 0 111 4 164 8 137 l7 -45 3 55 c5 88 0 682 -6 841 -6 125 -4
147 9 152 11 4 15 -1 14 -21 -5 -149 5 -622 13 -622 6 0 11 17 12 38 l1 37 4
-37 c3 -26 9 -38 20 -38 13 0 15 12 9 88 -4 70 -11 583 -7 602 1 3 15 6 31 6
l30 2 1 -92z m1842 37 c18 -10 35 -22 38 -27 4 -4 15 -6 25 -2 11 3 25 2 33
-3 19 -12 3 -33 -20 -26 -15 5 -19 1 -20 -22 -2 -51 2 -78 17 -110 17 -37 17
-37 45 -22 15 7 24 7 34 -1 7 -6 29 -12 49 -13 19 -2 38 -6 42 -10 4 -4 16 -7
26 -7 21 0 23 -21 7 -53 -9 -16 -9 -22 0 -25 15 -5 14 -24 -6 -85 -32 -98 -62
-137 -160 -204 -66 -45 -70 -46 -143 -47 -65 0 -82 4 -125 29 -69 41 -148 122
-174 179 -22 51 -28 111 -11 121 5 3 7 18 4 33 -2 15 0 34 6 42 9 13 11 13 20
0 6 -8 8 -23 6 -32 -6 -28 9 -21 24 10 18 37 23 72 10 72 -5 0 -10 14 -10 31
0 26 3 29 14 20 11 -9 15 -9 19 1 5 14 49 -25 59 -52 6 -15 8 -12 23 35 2 8
11 12 20 9 12 -5 15 4 15 52 0 68 3 72 50 102 42 26 44 26 83 5z m-223 -113
c0 -5 -4 -10 -10 -10 -5 0 -10 5 -10 10 0 6 5 10 10 10 6 0 10 -4 10 -10z
m627 -153 c-2 -23 -3 -1 -3 48 0 50 1 68 3 42 2 -26 2 -67 0 -90z m-142 80 c0
-24 -18 -23 -27 3 -6 17 -4 21 10 18 9 -2 17 -11 17 -21z m-888 -89 c-3 -7 -5
-2 -5 12 0 14 2 19 5 13 2 -7 2 -19 0 -25z m-1370 -85 c-2 -16 -4 -5 -4 22 0
28 2 40 4 28 2 -13 2 -35 0 -50z m2400 -40 c-3 -10 -5 -2 -5 17 0 19 2 27 5
18 2 -10 2 -26 0 -35z m-2200 -45 c-3 -7 -5 -2 -5 12 0 14 2 19 5 13 2 -7 2
-19 0 -25z m-200 -80 c-2 -18 -4 -4 -4 32 0 36 2 50 4 33 2 -18 2 -48 0 -65z
m70 60 c-3 -7 -5 -2 -5 12 0 14 2 19 5 13 2 -7 2 -19 0 -25z m1227 -103 c3 -8
1 -15 -4 -15 -6 0 -10 7 -10 15 0 8 2 15 4 15 2 0 6 -7 10 -15z m-1286 -140
c-1 -85 -2 -93 -8 -50 -11 70 -11 196 0 170 5 -11 8 -65 8 -120z m1287 77 c-8
-9 -25 20 -18 31 3 5 10 2 15 -7 6 -10 7 -20 3 -24z m36 -34 c0 -13 2 -33 3
-45 2 -13 -1 -23 -6 -23 -4 0 -8 7 -8 15 0 8 -10 16 -22 16 -23 2 -23 2 1 6
18 4 22 10 18 29 -2 13 0 24 4 24 5 0 9 -10 10 -22z m-31 -8 c0 -5 -4 -10 -10
-10 -5 0 -10 5 -10 10 0 6 5 10 10 10 6 0 10 -4 10 -10z m0 -50 c0 -5 -4 -10
-10 -10 -5 0 -10 5 -10 10 0 6 5 10 10 10 6 0 10 -4 10 -10z m28 -27 c-10 -2
-26 -2 -35 0 -10 3 -2 5 17 5 19 0 27 -2 18 -5z m-28 -23 c0 -5 -4 -10 -10
-10 -5 0 -10 5 -10 10 0 6 5 10 10 10 6 0 10 -4 10 -10z m23 -27 c-13 -2 -33
-2 -45 0 -13 2 -3 4 22 4 25 0 35 -2 23 -4z m1057 -73 c11 -7 7 -10 -17 -10
-18 0 -33 5 -33 10 0 13 30 13 50 0z m-2 -37 c-16 -2 -40 -2 -55 0 -16 2 -3 4
27 4 30 0 43 -2 28 -4z m-2218 -113 c0 -5 -13 -10 -30 -10 -16 0 -30 5 -30 10
0 6 14 10 30 10 17 0 30 -4 30 -10z m1173 -27 c-13 -2 -35 -2 -50 0 -16 2 -5
4 22 4 28 0 40 -2 28 -4z m-1076 -146 c-2 -23 -3 -1 -3 48 0 50 1 68 3 42 2
-26 2 -67 0 -90z m1091 106 c-15 -2 -42 -2 -60 0 -18 2 -6 4 27 4 33 0 48 -2
33 -4z m-1178 -203 c0 -5 -16 -10 -36 -10 -21 0 -33 4 -29 10 3 6 19 10 36 10
16 0 29 -4 29 -10z m-2 -47 c-15 -2 -42 -2 -60 0 -18 2 -6 4 27 4 33 0 48 -2
33 -4z m-1024 -207 c17 -13 42 -27 56 -31 14 -4 41 -18 60 -30 19 -13 53 -26
75 -30 22 -4 66 -18 97 -31 32 -13 66 -24 77 -24 25 0 51 -36 51 -71 0 -43 9
-57 50 -80 39 -22 56 -55 45 -88 -3 -11 5 -24 24 -39 27 -20 29 -26 29 -84 -1
-39 6 -82 17 -110 17 -45 17 -49 0 -84 -10 -21 -14 -46 -11 -60 7 -27 34 -43
45 -26 4 7 19 8 46 2 22 -5 54 -10 70 -10 28 0 30 3 32 40 1 40 25 76 43 65 5
-3 10 0 10 7 0 23 27 -14 69 -97 23 -44 41 -85 41 -91 0 -5 -13 -23 -29 -38
-19 -18 -27 -34 -23 -45 5 -14 4 -14 -11 -2 -11 9 -17 10 -17 2 0 -6 -7 -11
-15 -11 -8 0 -15 -7 -15 -16 0 -10 -6 -14 -15 -11 -8 4 -17 2 -21 -4 -4 -6
-11 -6 -20 2 -11 9 -14 8 -14 -4 0 -22 -28 -29 -39 -9 -8 13 -9 9 -7 -18 2
-19 1 -27 -1 -17 -2 9 -8 17 -13 17 -4 0 -6 10 -3 21 5 19 3 21 -26 14 -31 -7
-32 -6 -21 15 6 12 9 28 6 35 -3 9 0 12 10 8 17 -6 18 -2 0 31 l-13 27 -8 -33
c-5 -23 -9 -27 -12 -15 -3 9 -9 15 -14 12 -5 -4 -9 2 -9 12 0 10 -5 25 -11 33
-8 11 -9 6 -4 -20 6 -35 6 -35 -9 -10 -12 19 -15 21 -16 8 0 -10 -5 -18 -11
-18 -5 0 -7 -4 -4 -10 3 -5 -1 -10 -10 -10 -9 0 -13 -4 -10 -10 3 -5 -1 -10
-9 -10 -9 0 -16 -6 -16 -14 0 -9 -10 -13 -32 -11 -39 3 -49 32 -24 70 15 22
14 24 -4 30 -23 7 -70 -30 -70 -56 0 -10 17 -27 39 -40 36 -20 38 -23 22 -39
-9 -9 -45 -49 -81 -89 -38 -42 -80 -79 -102 -88 -20 -8 -48 -30 -62 -48 -38
-49 -106 -69 -233 -67 -103 1 -153 14 -185 45 -9 9 -39 30 -67 47 -70 41 -161
109 -161 119 0 5 -18 29 -41 53 -23 23 -45 54 -50 68 -5 14 -23 31 -39 39 -34
15 -60 56 -60 98 -1 15 -7 39 -15 53 -18 31 -19 107 -2 140 10 20 10 38 0 95
-8 38 -11 82 -7 97 8 38 49 68 93 68 36 0 36 0 39 -47 1 -29 -3 -52 -12 -62
-27 -30 -36 -69 -24 -98 6 -16 11 -31 10 -34 -1 -3 31 -9 71 -12 40 -4 87 -12
105 -18 32 -11 57 -5 36 9 -6 4 -20 26 -31 48 -18 38 -19 41 -2 37 11 -3 19 2
23 15 8 23 58 47 81 38 17 -6 19 2 6 23 -6 9 -10 10 -16 2 -4 -8 -11 -9 -18
-2 -12 9 -51 18 -119 26 -74 8 -104 37 -83 79 11 21 12 33 4 48 -17 33 -1 67
62 133 47 49 73 67 122 85 71 26 174 78 213 109 35 28 80 27 118 -3z m3583
-72 c-3 -3 -12 -4 -19 -1 -8 3 -5 6 6 6 11 1 17 -2 13 -5z m100 -48 c4 -4 -14
-5 -41 -2 -54 5 -59 7 -50 29 5 14 10 13 45 -2 22 -10 42 -21 46 -25z m18 -16
c-3 -5 -14 -10 -23 -9 -14 0 -13 2 3 9 27 11 27 11 20 0z m305 -150 c-13 -9
-13 -10 0 -10 8 0 21 4 28 8 7 5 34 6 61 2 27 -3 57 -3 67 1 17 5 20 0 24 -45
l5 -51 125 -13 c127 -12 184 -10 293 12 70 14 65 24 -16 27 -57 2 -57 3 -56
33 1 17 3 24 6 15 5 -20 45 -28 157 -34 44 -2 84 -9 90 -15 5 -5 17 -10 26
-10 9 0 25 -9 35 -20 10 -11 28 -20 41 -20 13 0 26 -5 30 -11 3 -6 17 -8 33
-4 49 12 8 -13 -48 -29 -64 -19 -64 -19 -57 -7 3 4 -7 6 -22 3 -21 -4 -23 -6
-9 -11 13 -5 5 -10 -27 -19 -37 -9 -50 -9 -72 3 -15 8 -32 11 -38 7 -13 -7
-15 -8 -121 -12 l-80 -3 85 -13 85 -13 -75 4 c-140 8 -212 17 -198 27 8 5 3 6
-14 2 -26 -6 -282 14 -518 41 -69 8 -178 19 -243 26 -65 6 -117 13 -115 14 12
10 477 122 513 124 16 1 17 -1 5 -9z m913 -107 c-7 -2 -21 -2 -30 0 -10 3 -4
5 12 5 17 0 24 -2 18 -5z m-2675 -24 c14 -8 11 -9 -11 -4 -21 4 -28 2 -25 -7
3 -7 18 -13 34 -13 16 0 32 -5 36 -11 4 -6 22 -10 40 -9 32 2 32 2 10 -13 -12
-8 -22 -25 -22 -38 0 -13 -4 -24 -8 -24 -11 0 -9 31 3 49 6 11 4 13 -9 8 -10
-4 -27 -2 -38 4 -17 9 -20 9 -16 -3 4 -10 -6 -14 -43 -16 -51 -2 -60 6 -34 28
13 11 13 15 3 21 -20 13 -31 10 -24 -6 3 -8 1 -15 -4 -15 -6 0 -10 5 -10 10 0
6 -9 10 -20 10 -20 0 -20 1 -3 24 16 21 24 24 71 20 29 -2 61 -9 70 -15z m130
-14 c-3 -3 -9 2 -12 12 -6 14 -5 15 5 6 7 -7 10 -15 7 -18z m172 21 c0 -3 -4
-8 -10 -11 -5 -3 -10 -1 -10 4 0 6 5 11 10 11 6 0 10 -2 10 -4z m-60 -36 c5 7
8 2 8 -14 0 -24 -2 -25 -14 -9 -10 13 -13 14 -14 4 0 -8 -2 -12 -5 -9 -3 3 -2
13 2 24 4 12 8 14 11 5 3 -10 6 -10 12 -1z m-103 -57 c-3 -10 -5 -2 -5 17 0
19 2 27 5 18 2 -10 2 -26 0 -35z m273 27 c0 -5 -5 -10 -11 -10 -5 0 -7 5 -4
10 3 6 8 10 11 10 2 0 4 -4 4 -10z m-302 -35 c-3 -3 -9 2 -12 12 -6 14 -5 15
5 6 7 -7 10 -15 7 -18z m836 -7 c-5 -8 2 -9 27 -2 52 13 151 7 585 -36 221
-22 406 -40 413 -40 7 0 10 -4 7 -8 -3 -5 21 -7 52 -6 31 2 47 0 34 -2 -13 -3
-20 -10 -16 -17 5 -8 2 -8 -7 1 -15 14 -49 16 -49 3 0 -16 63 -19 97 -5 18 8
45 14 60 14 17 0 -14 -15 -75 -36 -57 -19 -106 -33 -108 -31 -3 3 9 9 25 15
41 14 40 23 0 12 -18 -5 -36 -7 -41 -4 -5 3 -15 0 -23 -6 -8 -7 -15 -9 -15 -6
0 4 -7 0 -16 -8 -8 -9 -26 -16 -39 -16 -13 0 -27 -5 -31 -11 -5 -9 1 -10 22
-5 63 16 6 -14 -66 -35 -41 -12 -85 -26 -97 -31 -12 -6 -30 -8 -40 -4 -9 4
-14 4 -10 0 4 -4 -13 -15 -38 -25 -36 -14 -58 -15 -119 -9 -41 5 -143 16 -228
25 -84 8 -187 20 -228 25 -75 10 -436 47 -520 54 -43 4 -45 5 -51 40 -4 26 -2
36 7 36 8 0 78 19 156 41 113 33 225 62 336 88 2 1 0 -4 -4 -11z m-898 -34
c17 -14 17 -15 1 -10 -10 3 -23 6 -28 6 -5 0 -9 5 -9 10 0 14 13 12 36 -6z
m2564 -44 c0 -11 -25 -38 -72 -76 -14 -12 -27 -27 -30 -34 -3 -10 -20 -11 -73
-4 -63 8 -70 11 -69 30 0 15 -4 21 -15 17 -9 -2 -4 3 11 11 35 21 142 46 198
46 33 0 41 3 30 10 -13 8 -12 10 3 10 9 0 17 -5 17 -10z m261 -1 c36 1 95 -3
131 -9 36 -5 78 -11 92 -12 14 -1 26 -6 26 -11 0 -5 7 -4 15 3 13 11 14 8 10
-16 -3 -16 -9 -49 -14 -74 -4 -25 -12 -44 -17 -43 -5 1 -87 5 -182 9 -132 5
-175 10 -179 20 -3 8 1 43 8 79 10 53 16 64 28 59 9 -3 46 -5 82 -5z m-556
-93 c19 -7 18 -9 -8 -23 -16 -8 -31 -12 -35 -9 -3 3 1 6 9 6 12 0 12 2 -1 10
-9 6 -17 5 -23 -3 -6 -8 -7 -8 -4 3 2 8 11 14 20 12 12 -2 15 2 11 15 -4 11
-2 14 3 7 4 -6 17 -14 28 -18z m-3968 -38 c-3 -7 -5 -2 -5 12 0 14 2 19 5 13
2 -7 2 -19 0 -25z m3893 22 c0 -5 -4 -10 -10 -10 -5 0 -10 5 -10 10 0 6 5 10
10 10 6 0 10 -4 10 -10z m10 -30 c-19 -13 -30 -13 -30 0 0 6 10 10 23 10 18 0
19 -2 7 -10z m703 -37 c-7 -2 -19 -2 -25 0 -7 3 -2 5 12 5 14 0 19 -2 13 -5z
m110 -10 c-13 -2 -33 -2 -45 0 -13 2 -3 4 22 4 25 0 35 -2 23 -4z m-3018 -37
c3 -12 6 -50 7 -86 l3 -65 115 -13 c151 -17 350 -9 368 15 20 28 14 33 -38 33
l-50 0 0 34 c0 19 2 41 5 48 6 15 2 16 210 -7 77 -8 223 -22 325 -30 102 -9
200 -19 219 -23 33 -7 33 -8 -40 -31 -41 -13 -127 -41 -192 -62 -72 -24 -129
-37 -145 -34 -19 4 -21 3 -9 -3 13 -5 -10 -16 -85 -40 -57 -19 -125 -43 -153
-54 -27 -12 -63 -20 -80 -20 -16 1 -210 20 -430 42 -220 23 -494 50 -610 61
-115 11 -226 24 -245 28 l-35 7 60 16 c73 20 88 24 555 163 165 49 237 55 245
21z m-1716 -131 c0 -5 -4 -3 -9 5 -5 8 -9 22 -9 30 0 16 17 -16 18 -35z m87
-85 c0 -11 -4 -20 -8 -20 -4 0 -8 9 -8 20 0 11 4 20 8 20 4 0 8 -9 8 -20z
m2702 -45 c3 -18 3 -19 -10 -3 -7 9 -22 19 -33 21 -12 3 -8 5 10 4 21 -1 31
-8 33 -22z m-1932 -70 c170 -20 352 -40 404 -45 52 -6 174 -19 270 -30 96 -10
207 -22 245 -26 l70 -7 -35 -13 c-19 -7 -44 -13 -55 -13 -18 0 -17 1 5 14 23
13 20 14 -47 12 -40 -1 -73 -3 -73 -4 0 -1 15 -7 33 -12 l32 -9 -38 1 c-26 0
-43 6 -50 19 -8 12 -24 18 -49 18 -46 0 -50 -17 -5 -23 22 -3 16 -5 -23 -6
-53 -3 -54 -3 -20 -12 19 -5 51 -8 70 -8 63 2 90 -1 90 -8 0 -5 -33 -8 -73 -8
-57 0 -75 -4 -87 -18 -17 -20 -95 -41 -112 -31 -7 5 -8 2 -3 -5 4 -7 17 -10
29 -8 121 28 102 13 -48 -38 -70 -24 -126 -37 -158 -37 -28 1 -68 -6 -89 -15
-27 -10 -43 -12 -52 -5 -6 5 -21 6 -31 2 -16 -5 -17 -8 -6 -15 17 -11 69 -8
84 4 11 9 95 26 86 18 -15 -14 -247 -87 -274 -86 -29 1 -28 2 9 9 52 11 99 29
92 36 -3 3 -14 2 -24 -4 -10 -5 -36 -10 -58 -11 -21 -1 -44 -6 -51 -12 -12
-10 -113 -1 -404 36 -136 17 -363 44 -838 96 -56 7 -100 14 -97 18 3 3 72 24
153 46 81 23 269 76 417 118 149 42 286 80 305 86 55 15 78 13 406 -24z m874
-139 c0 -3 -4 -8 -10 -11 -5 -3 -10 -1 -10 4 0 6 5 11 10 11 6 0 10 -2 10 -4z
m-80 -30 c0 -2 -7 -7 -16 -10 -8 -3 -12 -2 -9 4 6 10 25 14 25 6z m-70 -26
c-34 -11 -60 -11 -35 0 11 5 29 8 40 8 16 0 15 -2 -5 -8z m2390 -81 c25 -6 18
-6 -25 -2 -33 3 -69 9 -80 14 -23 9 50 1 105 -12z m-1000 -389 c0 -12 -17 -12
-45 0 -17 7 -15 9 13 9 17 1 32 -3 32 -9z m40 0 c0 -5 -5 -10 -11 -10 -5 0 -7
5 -4 10 3 6 8 10 11 10 2 0 4 -4 4 -10z m-3162 -105 c-8 -8 -68 -25 -68 -19 0
6 41 23 59 23 8 1 12 -1 9 -4z m-107 -40 c-42 -19 -52 -19 -27 0 11 8 29 15
40 15 16 -1 12 -5 -13 -15z m3986 -267 c-3 -7 -5 -2 -5 12 0 14 2 19 5 13 2
-7 2 -19 0 -25z m-1872 13 l40 -9 -35 0 c-19 0 -48 4 -65 8 -27 7 -28 8 -5 8
14 1 43 -3 65 -7z m180 -21 c8 -13 -25 -13 -45 0 -12 8 -9 10 12 10 15 0 30
-4 33 -10z"/>
<path d="M4560 3645 c-3 -5 -4 -76 -2 -157 3 -144 4 -148 25 -148 22 0 22 3
22 155 0 84 -3 151 -7 147 -4 -4 -8 -58 -9 -120 0 -61 -5 -112 -10 -112 -4 0
-10 55 -11 123 -2 67 -5 118 -8 112z"/>
<path d="M2384 3670 c0 -91 2 -128 3 -82 2 45 2 119 0 165 -1 45 -3 8 -3 -83z"/>
<path d="M2361 3654 c0 -11 3 -14 6 -6 3 7 2 16 -1 19 -3 4 -6 -2 -5 -13z"/>
<path d="M2383 3405 c0 -33 2 -45 4 -27 2 18 2 45 0 60 -2 15 -4 0 -4 -33z"/>
<path d="M2362 3375 c0 -16 2 -22 5 -12 2 9 2 23 0 30 -3 6 -5 -1 -5 -18z"/>
<path d="M2360 3120 c0 -5 6 -10 14 -10 8 0 18 5 21 10 3 6 -3 10 -14 10 -12
0 -21 -4 -21 -10z"/>
<path d="M2365 3090 c3 -5 10 -10 16 -10 5 0 9 5 9 10 0 6 -7 10 -16 10 -8 0
-12 -4 -9 -10z"/>
<path d="M2368 3063 c7 -3 16 -2 19 1 4 3 -2 6 -13 5 -11 0 -14 -3 -6 -6z"/>
<path d="M3990 3750 c0 -5 5 -10 11 -10 5 0 7 5 4 10 -3 6 -8 10 -11 10 -2 0
-4 -4 -4 -10z"/>
<path d="M4444 3719 c-3 -5 1 -9 8 -10 7 -1 -12 -9 -42 -19 -37 -13 -47 -19
-30 -19 39 -1 97 18 103 33 6 16 -30 30 -39 15z"/>
<path d="M4328 3673 c7 -3 16 -2 19 1 4 3 -2 6 -13 5 -11 0 -14 -3 -6 -6z"/>
<path d="M4445 3611 c-3 -5 -1 -12 5 -16 5 -3 10 1 10 9 0 18 -6 21 -15 7z"/>
<path d="M1550 2320 c0 -5 5 -10 11 -10 5 0 7 5 4 10 -3 6 -8 10 -11 10 -2 0
-4 -4 -4 -10z"/>
<path d="M1772 2094 c-18 -8 -30 -19 -27 -24 4 -6 -7 -13 -24 -16 -17 -4 -49
-22 -71 -41 -35 -30 -40 -40 -35 -63 4 -20 -2 -40 -26 -78 -42 -68 -36 -82 39
-82 44 0 65 5 82 20 12 11 39 22 59 25 81 13 81 13 81 49 0 19 3 41 6 50 4 10
-1 19 -14 23 -18 7 -19 9 -4 23 9 8 19 15 22 15 3 0 3 6 2 13 -2 8 1 19 7 26
7 8 1 21 -20 44 -34 36 -32 36 -77 16z m38 -94 c0 -5 -2 -10 -4 -10 -3 0 -8 5
-11 10 -3 6 -1 10 4 10 6 0 11 -4 11 -10z"/>
<path d="M860 1576 c0 -24 41 -76 60 -76 7 0 5 7 -4 16 -9 8 -16 28 -16 44 0
16 -7 30 -16 34 -23 9 -24 8 -24 -18z"/>
<path d="M6288 2013 c6 -2 18 -2 25 0 6 3 1 5 -13 5 -14 0 -19 -2 -12 -5z"/>
<path d="M6093 1993 c9 -2 23 -2 30 0 6 3 -1 5 -18 5 -16 0 -22 -2 -12 -5z"/>
<path d="M5818 1963 c7 -3 16 -2 19 1 4 3 -2 6 -13 5 -11 0 -14 -3 -6 -6z"/>
<path d="M5418 1843 c6 -2 18 -2 25 0 6 3 1 5 -13 5 -14 0 -19 -2 -12 -5z"/>
<path d="M5488 1833 c6 -2 18 -2 25 0 6 3 1 5 -13 5 -14 0 -19 -2 -12 -5z"/>
<path d="M5560 1833 c8 -3 21 -10 28 -16 8 -7 12 -5 12 7 0 11 -8 16 -27 15
-16 0 -22 -3 -13 -6z"/>
<path d="M5515 1810 c-3 -5 -1 -10 4 -10 6 0 11 5 11 10 0 6 -2 10 -4 10 -3 0
-8 -4 -11 -10z"/>
<path d="M5118 1643 c7 -3 16 -2 19 1 4 3 -2 6 -13 5 -11 0 -14 -3 -6 -6z"/>
<path d="M5158 1643 c6 -2 18 -2 25 0 6 3 1 5 -13 5 -14 0 -19 -2 -12 -5z"/>
<path d="M4788 1513 c6 -2 18 -2 25 0 6 3 1 5 -13 5 -14 0 -19 -2 -12 -5z"/>
<path d="M4625 1470 c3 -5 11 -10 16 -10 6 0 7 5 4 10 -3 6 -11 10 -16 10 -6
0 -7 -4 -4 -10z"/>
<path d="M4400 1390 c0 -5 7 -7 15 -4 8 4 15 8 15 10 0 2 -7 4 -15 4 -8 0 -15
-4 -15 -10z"/>
<path d="M4245 1353 c-44 -8 -90 -14 -102 -15 -13 0 -20 -4 -17 -9 3 -6 -6 -7
-23 -4 -19 5 -24 4 -14 -3 11 -8 11 -10 0 -15 -8 -3 10 -6 40 -6 46 -1 52 1
41 14 -15 18 -7 19 22 4 12 -6 18 -7 14 -1 -7 12 15 22 52 23 15 0 45 6 67 14
51 17 21 16 -80 -2z"/>
<path d="M4013 1313 c9 -2 25 -2 35 0 9 3 1 5 -18 5 -19 0 -27 -2 -17 -5z"/>
<path d="M3448 1203 c7 -3 16 -2 19 1 4 3 -2 6 -13 5 -11 0 -14 -3 -6 -6z"/>
<path d="M3298 1083 c-34 -9 -18 -18 25 -14 33 3 38 5 22 12 -22 8 -23 9 -47
2z"/>
<path d="M3200 1070 c0 -5 5 -10 10 -10 6 0 10 5 10 10 0 6 -4 10 -10 10 -5 0
-10 -4 -10 -10z"/>
<path d="M3235 1070 c3 -5 12 -7 20 -3 21 7 19 13 -6 13 -11 0 -18 -4 -14 -10z"/>
<path d="M3158 1063 c7 -3 16 -2 19 1 4 3 -2 6 -13 5 -11 0 -14 -3 -6 -6z"/>
<path d="M2545 970 c-3 -5 1 -10 10 -10 9 0 13 5 10 10 -3 6 -8 10 -10 10 -2
0 -7 -4 -10 -10z"/>
<path d="M2885 950 c-3 -5 -21 -10 -38 -11 l-32 -1 30 -9 c16 -4 32 -5 35 0 3
4 12 10 20 13 10 3 11 6 3 11 -7 4 -14 3 -18 -3z"/>
<path d="M2928 953 c6 -2 18 -2 25 0 6 3 1 5 -13 5 -14 0 -19 -2 -12 -5z"/>
<path d="M6656 4534 c-3 -9 -6 -52 -6 -95 0 -80 0 -80 45 -136 25 -30 45 -61
45 -68 0 -17 14 -26 45 -29 16 -2 22 1 18 10 -3 8 1 14 8 14 11 0 14 20 14 86
0 86 0 86 34 114 18 16 49 31 68 35 44 8 73 33 53 45 -7 4 -10 14 -8 21 8 23
47 -28 54 -70 6 -34 9 -38 24 -29 39 24 103 -7 138 -68 11 -18 11 -18 12 4 0
14 4 21 11 17 7 -5 7 -1 1 11 -13 24 -42 122 -42 140 0 12 -44 14 -254 14
-222 0 -255 -2 -260 -16z"/>
<path d="M7225 4450 c-4 -6 7 -10 24 -10 17 0 31 5 31 10 0 6 -11 10 -24 10
-14 0 -28 -4 -31 -10z"/>
<path d="M7230 4368 c0 -3 7 -21 15 -39 16 -34 16 -34 10 -4 -6 26 -25 60 -25
43z"/>
<path d="M1068 4343 c7 -3 16 -2 19 1 4 3 -2 6 -13 5 -11 0 -14 -3 -6 -6z"/>
<path d="M3495 4225 l-40 -13 53 -1 c40 -1 52 2 52 14 0 18 -11 18 -65 0z"/>
<path d="M7180 4174 c0 -18 -5 -25 -17 -23 -32 3 -43 -1 -43 -15 0 -8 -7 -17
-16 -20 -22 -9 -24 -8 -24 9 0 26 -16 16 -18 -11 -2 -22 1 -25 26 -22 15 2 34
9 42 17 13 13 15 12 18 -8 4 -26 -13 -42 -35 -34 -10 4 -13 -9 -13 -58 -1 -74
-15 -99 -57 -99 -16 0 -33 -4 -38 -9 -9 -7 -47 -18 -170 -47 -16 -4 -32 -8
-35 -9 -14 -3 -80 -70 -80 -81 0 -21 44 -24 214 -14 197 11 238 21 253 60 8
21 21 31 51 39 l41 11 -7 48 c-4 26 -6 66 -5 90 0 23 -3 42 -8 42 -12 0 -39
55 -39 78 0 19 -28 82 -36 82 -2 0 -4 -12 -4 -26z"/>
<path d="M1688 4183 c-85 -6 -71 -23 18 -23 56 0 75 3 72 13 -5 14 -12 15 -90
10z"/>
<path d="M1390 4160 c0 -5 6 -10 14 -10 8 0 18 5 21 10 3 6 -3 10 -14 10 -12
0 -21 -4 -21 -10z"/>
<path d="M6825 4160 c-3 -5 -1 -10 4 -10 6 0 11 5 11 10 0 6 -2 10 -4 10 -3 0
-8 -4 -11 -10z"/>
<path d="M2936 3975 c4 -8 8 -15 10 -15 2 0 4 7 4 15 0 8 -4 15 -10 15 -5 0
-7 -7 -4 -15z"/>
<path d="M3513 3879 c-9 -9 -13 -59 -13 -174 0 -137 2 -162 15 -162 11 0 15
13 15 54 0 30 -5 63 -11 75 -8 14 -8 27 1 47 6 15 10 60 8 100 -2 58 -5 70
-15 60z"/>
<path d="M3548 3644 c-14 -13 -9 -104 5 -104 9 0 12 13 9 43 -5 63 -6 70 -14
61z"/>
<path d="M5540 3470 c-6 -11 -18 -20 -28 -20 -15 0 -15 -2 -2 -10 12 -8 11
-10 -7 -10 -18 0 -23 -6 -23 -24 0 -26 21 -47 28 -28 2 7 10 12 17 12 11 0 55
74 55 93 0 15 -30 6 -40 -13z"/>
<path d="M6931 3424 c0 -11 3 -14 6 -6 3 7 2 16 -1 19 -3 4 -6 -2 -5 -13z"/>
<path d="M7213 3053 c9 -2 23 -2 30 0 6 3 -1 5 -18 5 -16 0 -22 -2 -12 -5z"/>
</g>
</svg>
